<svg xmlns="http://www.w3.org/2000/svg" version="1.1" xmlns:xlink="http://www.w3.org/1999/xlink" xmlns:svgjs="http://svgjs.dev/svgjs" width="1500" height="1687" viewBox="0 0 1500 1687"><g transform="matrix(1,0,0,1,2.2737367544323206e-13,0)"><svg viewBox="0 0 320 360" data-background-color="#4a5d5e" preserveAspectRatio="xMidYMid meet" height="1687" width="1500" xmlns="http://www.w3.org/2000/svg" xmlns:xlink="http://www.w3.org/1999/xlink"><g id="tight-bounds" transform="matrix(1,0,0,1,0,0)"><svg viewBox="0 0 320 360" height="360" width="320"><g><svg></svg></g><g><svg viewBox="0 0 320 360" height="360" width="320"><g><path d="M20.961 227.22l3.726 4.658-1.863-6.056c-0.466-2.795-3.726 0.466-1.863 1.398M25.153 224.425c1.397 2.329 2.795 4.658 2.795 6.987 0 3.261 2.795 4.658 5.123 5.589-3.261-3.726-5.124-13.974-7.918-12.576M204.017 26.929c7.918 0 15.371-0.932 23.756 0.931 20.495 5.124 37.729 15.371 49.374 29.811l32.606 52.169c1.397 13.042 4.192 27.482 3.726 43.319 3.261 0 2.795-4.658 6.521-5.59-3.726 9.316-5.59 20.961-6.521 34.469-2.329-7.453 0-18.632 0.466-24.687-3.261 5.124-5.124 1.397-5.124-0.932 0.466-3.726-1.397-3.261-2.795-4.658-5.124-4.658-8.384-9.782-12.11-17.7 2.329-6.055 2.795-14.905-4.658-19.563-2.329-1.397-5.124-3.726-6.521-7.453-1.863-5.124-5.124-11.179-4.193-19.097 0.466-2.329-6.987 5.124-11.179 1.863-18.166-12.576-36.332-27.016-58.224-39.127-11.645 0-20.029-4.192-24.221-9.316-3.726-4.658-0.932-10.713 4.658-11.179 3.261 0 6.987-0.932 9.782 0.932 0.466-1.863 2.329-4.192 4.657-4.192M157.904 16.215l0.932 0.466c4.658 0.932 6.987 7.453 12.11 5.124 0 3.261 0.466 6.521-0.466 8.85-1.397 3.726-5.59 3.726-8.85 3.726-31.208-1.863-49.374 11.179-68.471 22.358-5.124 3.261-10.713 5.59-14.906 9.782-20.029 18.632-41.921 35.866-47.045 70.335l-4.192 38.195c-0.466 4.192-5.124 8.384-4.192 13.508l3.26 22.824c-3.261-3.261-5.124 0.932-4.192 2.795 0.466 1.397 2.329 6.055 5.124 1.863 3.726 6.987 7.453 20.495 12.576 26.55 15.837 18.632 36.332 35.4 53.101 52.169 4.192-0.932 7.453-0.932 8.384-3.727 1.397 2.795-1.397 5.59-3.726 6.056 7.453 4.658 15.837 8.85 27.016 9.781 14.44 0.932 27.948 3.261 40.524 6.522 6.521-1.863 13.042-2.795 20.029-3.261 2.329 0 3.726-3.726 6.521-4.658l0.466-4.658c2.795 4.192 2.329-1.397 0.466-4.192 3.261 2.795 4.192 5.124 5.589 6.987 0-1.397 3.726-6.521 3.727-0.466l0.931-6.055c1.397-0.932 1.863 5.124 3.261 0.931 1.397-4.192 4.192-0.932 6.987-2.329-0.932 1.863-0.466 5.59 2.794 3.261l3.727-3.261c2.329 5.59 6.055 3.261 7.918 2.329 20.495-13.042 40.99-28.413 60.553-43.784l-0.466 6.055 2.329-7.453c2.329 2.329 4.192 0.466 5.124-0.931 2.795-4.658 6.521-9.316 12.577-13.508-7.453 20.029-16.303 35.866-27.482 48.908l-4.658 5.59c0 3.261-0.932 7.453-4.658 7.918-1.863 0.466-5.59-0.932-8.384 1.863-1.397 1.863 3.261 5.59-0.466 2.795-3.261-2.329-6.521 0-10.248 0.932-2.795 0.932 1.863 3.726 2.795 5.589 0.932 1.863 1.863 3.726 1.398 6.056l-5.124-5.59c-6.055 3.261-9.782 9.316-14.906 13.974-2.329 1.863-1.397 5.124-1.397 7.918-3.261 0-6.987-0.932-8.85 0.932-1.397 1.863-0.932 4.658-0.932 7.453-4.658-0.466-5.124-7.453-9.315-6.056-4.192 0.932-8.85 1.397-12.577 3.727 2.795 5.59-4.658 2.329-3.726 3.26-6.987-4.192-13.042-7.453-20.495-4.658-15.837-5.124-35.4-2.795-49.84-0.931 0-2.329 0.466-4.658-0.466-5.124-0.932 2.329-3.726 1.397-3.26 1.397-8.85-6.055-17.7-9.782-27.016-14.905-8.384 0.932-16.303-3.261-18.632-5.59-6.521-6.055-13.974-2.795-20.029-4.192-13.042-3.261-17.7-16.769-19.098-26.084-0.932-4.658-4.658-6.521-6.055-6.056-6.055-19.563-15.371-37.263-22.824-55.429-1.863-4.658-1.397-9.316-1.397-14.44 2.329 0.932 4.658 0.466 4.192-2.794-2.329-15.371-7.918-27.016-13.974-38.195 3.261-15.837 3.726-34.469 11.179-48.443 6.521-12.576 18.632-19.098 27.016-29.811 2.795-3.726 2.795-8.85 5.59-12.11 9.316-9.316 18.632-19.098 28.879-27.482 4.658-3.726 10.247 0 17.234-1.397 2.329-8.384 11.645-15.837 20.495-13.508 3.726 0.932 11.179-8.85 13.508-9.782 3.726-1.397 1.863 3.726 1.863 6.987 8.85-6.987 20.961-10.713 32.14-14.906" fill="#d2dbc8" fill-rule="nonzero" stroke="none" stroke-width="1" stroke-linecap="butt" stroke-linejoin="miter" stroke-miterlimit="10" stroke-dasharray="" stroke-dashoffset="0" font-family="none" font-weight="none" font-size="none" text-anchor="none" style="mix-blend-mode: normal" data-fill-palette-color="tertiary"></path></g><g transform="matrix(1,0,0,1,64,172.16495352988244)"><svg viewBox="0 0 192 15.670092940235122" height="15.670092940235122" width="192"><g><svg viewBox="0 0 192 15.670092940235122" height="15.670092940235122" width="192"><g><svg viewBox="0 0 192 15.670092940235122" height="15.670092940235122" width="192"><g><svg viewBox="0 0 192 15.670092940235122" height="15.670092940235122" width="192"><g id="textblocktransform"><svg viewBox="0 0 192 15.670092940235122" height="15.670092940235122" width="192" id="textblock"><g><svg viewBox="0 0 192 15.670092940235122" height="15.670092940235122" width="192"><g transform="matrix(1,0,0,1,0,0)"><svg width="192" viewBox="3.78 -32.55 406.13000000000005 33.15" height="15.670092940235122" data-palette-color="#d2dbc8"><path d="M7.93-31.95L7.93 0 3.78 0 3.78-31.95 7.93-31.95ZM22.6-16.85L22.6-13.38 6.13-13.38 6.13-16.85 22.6-16.85ZM22.98-31.95L22.98-28.48 4.98-28.48 4.98-31.95 22.98-31.95ZM39.97 0.6L39.97 0.6Q33.92 0.6 30.77-2.74 27.62-6.08 27.62-12.3L27.62-12.3 27.62-19.68Q27.62-25.88 30.77-29.21 33.92-32.55 39.97-32.55L39.97-32.55Q46.02-32.55 49.17-29.21 52.32-25.88 52.32-19.68L52.32-19.68 52.32-12.3Q52.32-6.08 49.17-2.74 46.02 0.6 39.97 0.6ZM39.97-2.88L39.97-2.88Q44.02-2.88 46.07-5.29 48.12-7.7 48.12-12.13L48.12-12.13 48.12-19.85Q48.12-24.28 46.07-26.68 44.02-29.08 39.97-29.08L39.97-29.08Q35.95-29.08 33.9-26.68 31.85-24.28 31.85-19.85L31.85-19.85 31.85-12.13Q31.85-7.7 33.9-5.29 35.95-2.88 39.97-2.88ZM80.55-7.03L81.62 0 77.35 0 76.45-6.55Q76.2-8.4 75.6-9.76 75-11.13 73.76-11.9 72.52-12.68 70.25-12.68L70.25-12.68 61.57-12.7 61.57-15.98 70.85-16Q74.12-16 75.52-17.61 76.92-19.23 76.92-22L76.92-22 76.92-22.75Q76.92-25.5 75.5-27.01 74.07-28.53 70.75-28.53L70.75-28.53 61.45-28.53 61.45-31.95 71.3-31.95Q76.45-31.95 78.78-29.69 81.12-27.43 81.12-23.45L81.12-23.45 81.12-22.6Q81.12-19.48 79.65-17.49 78.17-15.5 74.75-15.08L74.75-15.08 74.75-14.58 72.97-15.2Q75.75-15 77.26-13.99 78.77-12.98 79.47-11.23 80.17-9.47 80.55-7.03L80.55-7.03ZM62.82-13.3L62.82 0 58.72 0 58.72-31.95 62.8-31.95 62.8-14.88 62.82-13.3ZM91.59-31.95L91.59 0 87.49 0 87.49-31.95 91.59-31.95ZM107.42-3.48L107.42 0 88.72 0 88.72-3.48 107.42-3.48ZM106.89-18.03L106.89-14.58 89.84-14.58 89.84-18.03 106.89-18.03ZM107.27-31.95L107.27-28.48 88.69-28.48 88.69-31.95 107.27-31.95ZM137.14-31.95L127.44 0 120.82 0 111.09-31.95 115.44-31.95 123.82-3.15 124.42-3.15 132.82-31.95 137.14-31.95ZM146.24-31.95L146.24 0 142.14 0 142.14-31.95 146.24-31.95ZM162.06-3.48L162.06 0 143.36 0 143.36-3.48 162.06-3.48ZM161.54-18.03L161.54-14.58 144.49-14.58 144.49-18.03 161.54-18.03ZM161.91-31.95L161.91-28.48 143.34-28.48 143.34-31.95 161.91-31.95ZM190.11-7.03L191.19 0 186.91 0 186.01-6.55Q185.76-8.4 185.16-9.76 184.56-11.13 183.32-11.9 182.09-12.68 179.81-12.68L179.81-12.68 171.14-12.7 171.14-15.98 180.41-16Q183.69-16 185.09-17.61 186.49-19.23 186.49-22L186.49-22 186.49-22.75Q186.49-25.5 185.06-27.01 183.64-28.53 180.31-28.53L180.31-28.53 171.01-28.53 171.01-31.95 180.86-31.95Q186.01-31.95 188.35-29.69 190.69-27.43 190.69-23.45L190.69-23.45 190.69-22.6Q190.69-19.48 189.21-17.49 187.74-15.5 184.31-15.08L184.31-15.08 184.31-14.58 182.54-15.2Q185.31-15 186.82-13.99 188.34-12.98 189.04-11.23 189.74-9.47 190.11-7.03L190.11-7.03ZM172.39-13.3L172.39 0 168.29 0 168.29-31.95 172.36-31.95 172.36-14.88 172.39-13.3ZM218.11-29.15L209.33 0 205.13 0 215.13-31.95 221.68-31.95 231.71 0 227.51 0 218.73-29.15 218.11-29.15ZM225.68-12.88L225.68-9.43 211.13-9.43 211.13-12.88 225.68-12.88ZM258.53-7.03L259.6 0 255.33 0 254.43-6.55Q254.18-8.4 253.58-9.76 252.98-11.13 251.74-11.9 250.5-12.68 248.23-12.68L248.23-12.68 239.55-12.7 239.55-15.98 248.83-16Q252.1-16 253.5-17.61 254.9-19.23 254.9-22L254.9-22 254.9-22.75Q254.9-25.5 253.48-27.01 252.05-28.53 248.73-28.53L248.73-28.53 239.43-28.53 239.43-31.95 249.28-31.95Q254.43-31.95 256.77-29.69 259.1-27.43 259.1-23.45L259.1-23.45 259.1-22.6Q259.1-19.48 257.63-17.49 256.15-15.5 252.73-15.08L252.73-15.08 252.73-14.58 250.95-15.2Q253.73-15 255.24-13.99 256.75-12.98 257.45-11.23 258.15-9.47 258.53-7.03L258.53-7.03ZM240.8-13.3L240.8 0 236.7 0 236.7-31.95 240.78-31.95 240.78-14.88 240.8-13.3ZM277.05-31.28L277.05 0 272.9 0 272.9-31.28 277.05-31.28ZM286.63-31.95L286.63-28.48 263.33-28.48 263.33-31.95 286.63-31.95ZM292.07-31.95L296.22-31.95 296.22 0 292.07 0 292.07-31.95ZM312.72 0.58L312.72 0.58Q310.42 0.58 308.51 0.2 306.6-0.18 305.1-0.73 303.6-1.28 302.6-1.83L302.6-1.83 302.17-5.95Q304.1-4.8 306.71-3.94 309.32-3.08 312.4-3.08L312.4-3.08Q316.1-3.08 317.87-4.39 319.65-5.7 319.65-8.33L319.65-8.33 319.65-8.72Q319.65-10.45 318.95-11.55 318.25-12.65 316.58-13.4 314.92-14.15 312.07-14.8L312.07-14.8Q308.47-15.65 306.31-16.81 304.15-17.98 303.18-19.73 302.22-21.48 302.22-24.08L302.22-24.08 302.22-24.3Q302.22-28.23 304.8-30.36 307.37-32.5 312.6-32.5L312.6-32.5Q316.02-32.5 318.43-31.8 320.85-31.1 322.37-30.25L322.37-30.25 322.75-26.45Q320.97-27.5 318.61-28.24 316.25-28.98 313.2-28.98L313.2-28.98Q310.77-28.98 309.27-28.4 307.77-27.83 307.1-26.75 306.42-25.68 306.42-24.15L306.42-24.15 306.42-24.05Q306.42-22.5 307.08-21.4 307.75-20.3 309.41-19.5 311.07-18.7 314.15-17.95L314.15-17.95Q317.67-17.13 319.8-16.05 321.92-14.98 322.88-13.25 323.85-11.53 323.85-8.75L323.85-8.75 323.85-8.22Q323.85-3.9 321.06-1.66 318.27 0.58 312.72 0.58ZM340.29-29.15L331.52 0 327.32 0 337.32-31.95 343.87-31.95 353.89 0 349.69 0 340.92-29.15 340.29-29.15ZM347.87-12.88L347.87-9.43 333.32-9.43 333.32-12.88 347.87-12.88ZM358.89 0L358.89-31.95 365.19-31.95 378.17-4.45 378.47-4.45 378.29-18.4 378.29-31.95 382.34-31.95 382.34 0 376.19 0 363.07-27.73 362.77-27.73 362.94-13.13 362.94 0 358.89 0ZM398.79 0.58L398.79 0.58Q396.49 0.58 394.58 0.2 392.66-0.18 391.16-0.73 389.66-1.28 388.66-1.83L388.66-1.83 388.24-5.95Q390.16-4.8 392.78-3.94 395.39-3.08 398.46-3.08L398.46-3.08Q402.16-3.08 403.94-4.39 405.71-5.7 405.71-8.33L405.71-8.33 405.71-8.72Q405.71-10.45 405.01-11.55 404.31-12.65 402.65-13.4 400.99-14.15 398.14-14.8L398.14-14.8Q394.54-15.65 392.38-16.81 390.21-17.98 389.25-19.73 388.29-21.48 388.29-24.08L388.29-24.08 388.29-24.3Q388.29-28.23 390.86-30.36 393.44-32.5 398.66-32.5L398.66-32.5Q402.09-32.5 404.5-31.8 406.91-31.1 408.44-30.25L408.44-30.25 408.81-26.45Q407.04-27.5 404.68-28.24 402.31-28.98 399.26-28.98L399.26-28.98Q396.84-28.98 395.34-28.4 393.84-27.83 393.16-26.75 392.49-25.68 392.49-24.15L392.49-24.15 392.49-24.05Q392.49-22.5 393.15-21.4 393.81-20.3 395.48-19.5 397.14-18.7 400.21-17.95L400.21-17.95Q403.74-17.13 405.86-16.05 407.99-14.98 408.95-13.25 409.91-11.53 409.91-8.75L409.91-8.75 409.91-8.22Q409.91-3.9 407.13-1.66 404.34 0.58 398.79 0.58Z" opacity="1" transform="matrix(1,0,0,1,0,0)" fill="#d2dbc8" class="wordmark-text-0" data-fill-palette-color="primary" id="text-0"></path></svg></g></svg></g></svg></g></svg></g><g></g></svg></g></svg></g></svg></g></svg></g><defs></defs></svg><rect width="320" height="360" fill="none" stroke="none" visibility="hidden"></rect></g></svg></g></svg>